<?xml version="1.0" standalone="no"?>
<!DOCTYPE svg PUBLIC "-//W3C//DTD SVG 20010904//EN"
 "http://www.w3.org/TR/2001/REC-SVG-20010904/DTD/svg10.dtd">
<svg version="1.0" xmlns="http://www.w3.org/2000/svg"
 width="225.000000pt" height="225.000000pt" viewBox="0 0 225.000000 225.000000"
 preserveAspectRatio="xMidYMid meet">
<metadata>
Created by potrace 1.11, written by Peter Selinger 2001-2013
</metadata>
<g transform="translate(0.000000,225.000000) scale(0.100000,-0.100000)"
fill="#000000" stroke="none">
<path d="M0 1125 l0 -1125 1125 0 1125 0 0 1125 0 1125 -1125 0 -1125 0 0
-1125z m730 416 c0 -12 -268 -749 -282 -774 -6 -12 -13 -16 -19 -10 -13 13
271 793 288 793 7 0 13 -4 13 -9z m247 -387 c92 -252 138 -392 132 -399 -7 -6
-12 -6 -17 2 -4 6 -65 171 -137 367 -71 196 -132 356 -135 356 -3 0 -40 -92
-81 -205 -42 -117 -79 -205 -86 -205 -7 0 -13 4 -13 10 0 10 157 448 166 462
3 5 11 7 17 5 7 -2 76 -179 154 -393z m305 14 l3 -383 133 -3 c100 -2 132 -6
129 -15 -6 -18 -277 -22 -289 -5 -9 15 -11 772 -1 781 3 4 10 7 15 7 4 0 9
-172 10 -382z m321 369 c109 -46 166 -181 126 -296 -13 -36 -46 -45 -34 -8 29
88 16 165 -36 222 -49 54 -90 68 -194 69 l-80 1 -3 -322 -2 -323 96 0 c96 0
96 0 130 34 45 45 47 92 5 138 -27 31 -35 33 -105 38 -96 6 -104 24 -13 28 80
3 130 -16 158 -62 39 -63 14 -157 -50 -191 -22 -11 -60 -15 -141 -15 l-110 0
0 350 0 350 110 0 c70 0 122 -5 143 -13z m-39 -91 c39 -16 72 -56 81 -96 8
-38 -12 -100 -32 -100 -10 0 -13 6 -8 18 16 41 16 71 1 100 -21 41 -63 62
-125 62 -47 0 -68 9 -54 24 12 11 103 6 137 -8z m-650 -401 c53 -146 96 -273
96 -281 0 -9 -5 -14 -11 -12 -14 5 -211 537 -203 549 3 5 9 9 13 9 5 0 52
-119 105 -265z m722 147 c98 -50 148 -154 124 -261 -10 -47 -21 -64 -66 -108
-29 -29 -63 -53 -74 -53 -29 0 -25 17 9 34 72 37 119 130 107 211 -17 110
-109 175 -248 175 -54 0 -76 9 -60 25 15 15 166 -1 208 -23z m-788 -184 c-3
-9 -36 -14 -109 -16 l-104 -3 -44 -120 c-26 -72 -48 -118 -55 -116 -14 6 -13
10 36 150 l42 117 119 0 c90 0 118 -3 115 -12z m32 -93 c0 -12 -19 -15 -109
-15 -100 0 -131 6 -114 24 3 3 55 6 115 6 89 0 108 -3 108 -15z"/>
</g>
</svg>
